<?xml version="1.0" encoding="utf-8"?>
<!-- Generator: Adobe Illustrator 27.7.0, SVG Export Plug-In . SVG Version: 6.00 Build 0)  -->
<svg version="1.1" id="Layer_1" xmlns="http://www.w3.org/2000/svg" xmlns:xlink="http://www.w3.org/1999/xlink" x="0px" y="0px"
	 viewBox="0 0 800 800" style="enable-background:new 0 0 800 800;" xml:space="preserve">
<style type="text/css">
	.st0{stroke:#F9F9F9;stroke-miterlimit:10;}
</style>
<path class="st0" d="M400,0C179.1,0,0,179.1,0,400s179.1,400,400,400s400-179.1,400-400S620.9,0,400,0z M400,750.8
	C207,750.8,50,593,50,400S207,50,400,50s350,157,350,350S593,750.8,400,750.8z M415.9,248.9c-9.8,9.8-9.8,25.6,0,35.4l90.4,90.4
	H224.8c-13.8,0-25,11.2-25,25c0,13.8,11.2,25,25,25h283.2l-92,92c-9.8,9.8-9.8,25.6,0,35.4c4.9,4.9,11.3,7.3,17.7,7.3
	c6.4,0,12.8-2.5,17.7-7.3L599,400.5L451.3,248.9C441.5,239.2,425.7,239.2,415.9,248.9L415.9,248.9z"/>
</svg>
