<?xml version="1.0" encoding="utf-8"?>
<!-- Generator: Adobe Illustrator 27.9.0, SVG Export Plug-In . SVG Version: 6.00 Build 0)  -->
<svg version="1.1" id="Layer_1" xmlns="http://www.w3.org/2000/svg" xmlns:xlink="http://www.w3.org/1999/xlink" x="0px" y="0px"
	 viewBox="0 0 800 800" style="enable-background:new 0 0 800 800;" xml:space="preserve">
<style type="text/css">
	.st0{fill:none;stroke:#F0FFFF;stroke-width:20;stroke-linecap:round;stroke-linejoin:round;stroke-miterlimit:66.6667;}
</style>
<rect x="91.7" y="194.4" class="st0" width="102.8" height="102.8"/>
<rect x="91.7" y="91.7" class="st0" width="102.8" height="102.8"/>
<rect x="400" y="91.7" class="st0" width="102.8" height="102.8"/>
<rect x="502.8" y="91.7" class="st0" width="102.8" height="102.8"/>
<rect x="605.6" y="91.7" class="st0" width="102.8" height="102.8"/>
<rect x="194.4" y="194.4" class="st0" width="102.8" height="102.8"/>
<rect x="194.4" y="297.2" class="st0" width="102.8" height="102.8"/>
<rect x="502.8" y="194.4" class="st0" width="102.8" height="102.8"/>
<rect x="502.8" y="297.2" class="st0" width="102.8" height="102.8"/>
<rect x="400" y="605.6" class="st0" width="102.8" height="102.8"/>
<rect x="605.6" y="605.6" class="st0" width="102.8" height="102.8"/>
<rect x="605.6" y="502.8" class="st0" width="102.8" height="102.8"/>
<rect x="400" y="400" class="st0" width="102.8" height="102.8"/>
<rect x="297.2" y="605.6" class="st0" width="102.8" height="102.8"/>
<rect x="194.4" y="605.6" class="st0" width="102.8" height="102.8"/>
<rect x="91.7" y="605.6" class="st0" width="102.8" height="102.8"/>
<rect x="194.4" y="502.8" class="st0" width="102.8" height="102.8"/>
<rect x="297.2" y="194.4" class="st0" width="102.8" height="102.8"/>
</svg>
