<?xml version="1.0" encoding="utf-8"?>
<!-- Generator: Adobe Illustrator 27.9.0, SVG Export Plug-In . SVG Version: 6.00 Build 0)  -->
<svg version="1.1" id="a" xmlns="http://www.w3.org/2000/svg" xmlns:xlink="http://www.w3.org/1999/xlink" x="0px" y="0px"
	 viewBox="0 0 800 800" style="enable-background:new 0 0 800 800;" xml:space="preserve">
<style type="text/css">
	.st0{fill:none;stroke:#F0FFFF;stroke-width:20;stroke-linecap:round;stroke-linejoin:round;stroke-miterlimit:66.6667;}
</style>
<g id="b">
	<path id="c" class="st0" d="M558.2,242.4c0,0-62.9,1.5-84.5,38.9c-19.9,34.4-16.1,60.3-16.1,60.3s0.5,114.3,1.3,160.9
		c0.9,46.6-10.7,67-34.9,67h-80.5"/>
	<path id="d" class="st0" d="M94.9,551.7c3.2,16.4,9.1,32.3,17.5,46.7c8.2,14.1,18.6,26.7,29.8,38.5c15.6,16.4,32.9,31.3,52.5,42.6
		c20.4,11.7,42.9,19.3,66,23.9c23,4.6,46.6,6.4,70,5.3"/>
	<path id="e" class="st0" d="M605.1,336.9h-93.9c0,0,2.7-46.9,46.9-46.9C602.4,290,605.1,336.9,605.1,336.9z"/>
	<path id="f" class="st0" d="M91.7,124.3v132.9 M542.1,707.6H675c18.4,0,33.3-14.9,33.3-33.3V536.1 M708.3,259.8V124.3
		c0-18.4-14.9-33.3-33.3-33.3H532.7 M260.5,91H125c-18.4,0-33.3,14.9-33.3,33.3"/>
	<path id="g" class="st0" d="M165.3,293.4c0,0,29.5-63,105.9-55"/>
	<path id="h" class="st0" d="M308.8,334.9h-93.9c0,0,2.7-46.9,46.9-46.9S308.8,334.9,308.8,334.9z"/>
</g>
</svg>
