<?xml version="1.0" encoding="utf-8"?>
<!-- Generator: Adobe Illustrator 27.9.0, SVG Export Plug-In . SVG Version: 6.00 Build 0)  -->
<svg version="1.1" id="Layer_1" xmlns="http://www.w3.org/2000/svg" xmlns:xlink="http://www.w3.org/1999/xlink" x="0px" y="0px"
	 viewBox="0 0 800 800" style="enable-background:new 0 0 800 800;" xml:space="preserve">
<style type="text/css">
	.st0{fill:#FFFFFF;}
</style>
<path class="st0" d="M762.2,335.8l-68.5-58.7V100.5c0-10.3-8.4-18.8-18.8-18.8s-18.8,8.4-18.8,18.8l0,0v144.4L412.2,35.8
	c-3.2-2.8-7.5-4.5-12.2-4.5s-8.9,1.7-12.2,4.5l0,0l-350,300c-4,3.4-6.6,8.5-6.6,14.2v400c0,10.3,8.4,18.8,18.8,18.8h700
	c10.3,0,18.8-8.4,18.8-18.8l0,0V350C768.8,344.3,766.2,339.2,762.2,335.8L762.2,335.8L762.2,335.8z M731.2,731.2H68.8V358.6
	L400,74.7l331.2,283.9V731.2z"/>
</svg>
