<?xml version="1.0" encoding="UTF-8"?>
<svg id="Layer_1" data-name="Layer 1" xmlns="http://www.w3.org/2000/svg" viewBox="0 0 1366 129">
  <path d="m4.5,121.41V10.09h29.38c6.82,0,13.01,1.38,18.57,4.13,5.56,2.76,10.01,6.47,13.36,11.13,3.35,4.67,5.02,9.86,5.02,15.58v19.08c0,5.72-1.68,10.92-5.02,15.58-3.35,4.67-7.8,8.38-13.36,11.13-5.56,2.76-11.75,4.14-18.57,4.14h-1.14v30.53H4.5Zm28.24-51.21h.57c1.64,0,3.16-.16,4.55-.48,1.39-.32,2.49-1.22,3.32-2.7.82-1.48,1.23-3.98,1.23-7.47v-17.97c0-3.6-.41-6.15-1.23-7.63-.82-1.48-1.93-2.39-3.32-2.7-1.39-.32-2.91-.48-4.55-.48h-.57v39.44Z"/>
  <path d="m115.75,123c-6.06,0-11.63-1.25-16.68-3.74-5.05-2.49-9.07-5.83-12.03-10.02-2.97-4.19-4.45-8.88-4.45-14.07v-58.84c0-5.19,1.48-9.88,4.45-14.07,2.97-4.19,6.98-7.53,12.03-10.02,5.05-2.49,10.61-3.74,16.68-3.74s11.62,1.25,16.68,3.74c5.05,2.49,9.06,5.83,12.03,10.02,2.97,4.19,4.45,8.88,4.45,14.07v58.84c0,5.2-1.49,9.89-4.45,14.07-2.97,4.19-6.98,7.53-12.03,10.02-5.06,2.49-10.61,3.74-16.68,3.74Zm0-20.99c1.39,0,2.53-.4,3.41-1.19.88-.8,1.33-1.72,1.33-2.78V33.31c0-1.17-.44-2.15-1.33-2.94-.89-.8-2.02-1.19-3.41-1.19s-2.56.4-3.51,1.19-1.42,1.78-1.42,2.94v64.72c0,1.06.47,1.99,1.42,2.78.95.79,2.11,1.19,3.51,1.19Z"/>
  <path d="m162.76,121.41V10.09h33.17c6.19,0,11.78,1.25,16.77,3.74,4.99,2.49,8.97,5.83,11.94,10.02,2.97,4.19,4.45,8.88,4.45,14.07v55.66c0,5.2-1.49,9.89-4.45,14.07-2.97,4.19-6.95,7.53-11.94,10.02-4.99,2.49-10.58,3.74-16.77,3.74h-33.17Zm28.24-20.52h5.31c1.26,0,2.3-.37,3.13-1.11.82-.74,1.23-1.59,1.23-2.54v-62.82c0-.95-.41-1.8-1.23-2.54-.82-.74-1.87-1.11-3.13-1.11h-5.31v70.13Z"/>
  <path d="m287.46,121.41V10.09h28.62v111.32h-28.62Z"/>
  <path d="m361,123c-6.06,0-11.63-1.25-16.68-3.74-5.05-2.49-9.07-5.83-12.03-10.02-2.97-4.19-4.45-8.88-4.45-14.07v-12.72h28.24v13.52c0,1.06.47,2.04,1.42,2.94.95.9,2.11,1.35,3.51,1.35s2.59-.45,3.6-1.35c1.01-.9,1.52-1.88,1.52-2.94,0-.95-.13-1.77-.38-2.47-.25-.69-.82-1.62-1.71-2.78l-22.74-31.17c-1.64-2.33-3.54-4.8-5.69-7.39-2.15-2.6-3.98-5.19-5.5-7.79-1.52-2.6-2.27-5.06-2.27-7.39v-.64c0-5.19,1.48-9.88,4.45-14.07,2.97-4.19,6.98-7.53,12.03-10.02,5.05-2.49,10.61-3.74,16.68-3.74s11.78,1.25,16.77,3.74c4.99,2.49,8.97,5.83,11.94,10.02,2.97,4.19,4.45,8.88,4.45,14.07v11.29h-28.05v-12.24c0-1.17-.51-2.17-1.52-3.02-1.01-.85-2.21-1.27-3.6-1.27-1.26,0-2.4.43-3.41,1.27-1.01.85-1.52,1.86-1.52,3.02,0,.74.16,1.35.47,1.83.31.48.79,1.19,1.42,2.15l23.5,31.33c2.9,3.92,5.75,7.82,8.53,11.69,2.78,3.87,4.17,7.93,4.17,12.17v.64c0,5.2-1.49,9.89-4.45,14.07-2.97,4.19-6.95,7.53-11.94,10.02-4.99,2.49-10.58,3.74-16.77,3.74Z"/>
  <path d="m451.78,121.41V10.09h28.62v111.32h-28.62Z"/>
  <path d="m495.94,121.41V10.09h22.74l16.11,43.73h2.84V10.09h24.64v111.32h-22.74l-16.11-43.73h-2.84v43.73h-24.64Z"/>
  <path d="m637.9,121.41V30.76h-18.01V10.09h64.44v20.67h-18.01v90.65h-28.43Z"/>
  <path d="m696.09,121.41V10.09h28.24v43.73h10.04V10.09h28.05v111.32h-28.05v-43.73h-10.04v43.73h-28.24Z"/>
  <path d="m777.96,121.41V10.09h53.07v20.67h-24.83v23.06h16.49v23.85h-16.49v23.22h24.83v20.52h-53.07Z"/>
  <path d="m888.64,121.41V10.09h33.17c6.19,0,11.78,1.25,16.77,3.74,4.99,2.49,8.97,5.83,11.94,10.02,2.97,4.19,4.45,8.88,4.45,14.07v55.66c0,5.2-1.49,9.89-4.45,14.07-2.97,4.19-6.95,7.53-11.94,10.02-4.99,2.49-10.58,3.74-16.77,3.74h-33.17Zm28.24-20.52h5.31c1.26,0,2.3-.37,3.13-1.11.82-.74,1.23-1.59,1.23-2.54v-62.82c0-.95-.41-1.8-1.23-2.54-.82-.74-1.87-1.11-3.13-1.11h-5.31v70.13Z"/>
  <path d="m969.38,121.41V10.09h53.07v20.67h-24.83v23.06h16.49v23.85h-16.49v23.22h24.83v20.52h-53.07Z"/>
  <path d="m1052.21,121.41V30.76h-18.01V10.09h64.44v20.67h-18.01v90.65h-28.43Z"/>
  <path d="m1102.81,121.41l16.11-111.32h34.12l16.11,111.32h-26.53l-1.71-20.52h-10.05l-1.33,20.52h-26.72Zm29.57-44.37h7.2l-1.9-35.15h-3.22l-2.08,35.15Z"/>
  <path d="m1184.69,121.41V10.09h28.62v111.32h-28.62Z"/>
  <path d="m1228.84,121.41V10.09h28.24v90.8h24.83v20.52h-53.07Z"/>
  <path d="m1326.83,123c-6.06,0-11.63-1.25-16.68-3.74-5.06-2.49-9.07-5.83-12.03-10.02-2.97-4.19-4.45-8.88-4.45-14.07v-12.72h28.24v13.52c0,1.06.47,2.04,1.42,2.94.95.9,2.11,1.35,3.51,1.35s2.59-.45,3.6-1.35c1.01-.9,1.52-1.88,1.52-2.94,0-.95-.13-1.77-.38-2.47-.25-.69-.82-1.62-1.71-2.78l-22.74-31.17c-1.64-2.33-3.54-4.8-5.69-7.39-2.15-2.6-3.98-5.19-5.5-7.79-1.52-2.6-2.27-5.06-2.27-7.39v-.64c0-5.19,1.48-9.88,4.45-14.07,2.97-4.19,6.98-7.53,12.03-10.02,5.05-2.49,10.61-3.74,16.68-3.74s11.78,1.25,16.77,3.74c4.99,2.49,8.97,5.83,11.94,10.02,2.97,4.19,4.45,8.88,4.45,14.07v11.29h-28.05v-12.24c0-1.17-.51-2.17-1.52-3.02-1.01-.85-2.21-1.27-3.6-1.27-1.26,0-2.4.43-3.41,1.27-1.01.85-1.52,1.86-1.52,3.02,0,.74.16,1.35.47,1.83.31.48.79,1.19,1.42,2.15l23.5,31.33c2.9,3.92,5.75,7.82,8.53,11.69,2.78,3.87,4.17,7.93,4.17,12.17v.64c0,5.2-1.49,9.89-4.45,14.07-2.97,4.19-6.95,7.53-11.94,10.02-4.99,2.49-10.58,3.74-16.77,3.74Z"/>
</svg>